<svg xmlns="http://www.w3.org/2000/svg" xmlns:xlink="http://www.w3.org/1999/xlink" style="margin:auto;display:block;position:relative" width="1976" height="998" preserveAspectRatio="xMidYMid" viewBox="0 0 1976 998">
<g transform="translate(988,499) scale(1,1) translate(-988,-499)"><g transform="translate(1534.4712065590275,75.11348169360161) scale(100)" opacity="0.7">
  <path d="M6.881419999999999 0 C6.881419999999999 1.5906799999999996 6.814718851036043 2.097720710708168 6.019378851036043 3.475289999999999 S4.818279289291831 5.164144534110311 3.4407100000000006 5.959484534110311 S1.59068 6.950579999999999 4.2560027746088044e-16 6.950579999999999 S-2.0631407107081676 6.754824534110311 -3.4407099999999984 5.959484534110311 S-5.224038851036041 4.852859289291832 -6.019378851036041 3.4752900000000015 S-6.881419999999999 1.5906800000000005 -6.881419999999999 8.427308976588579e-16 S-6.8147188510360435 -2.097720710708167 -6.019378851036044 -3.4752899999999975 S-4.818279289291834 -5.16414453411031 -3.440710000000003 -5.95948453411031 S-1.590680000000001 -6.950579999999999 -1.2768008323826412e-15 -6.950579999999999 S2.063140710708164 -6.754824534110313 3.4407099999999953 -5.959484534110314 S5.22403885103604 -4.852859289291833 6.01937885103604 -3.4752900000000024 S6.881419999999999 -1.5906800000000014 6.881419999999999 -1.6854617953177158e-15" fill="#381466" stroke-width="0">
    <animateTransform attributeName="transform" type="rotate" dur="33.333333333333336s" repeatCount="indefinite" values="0;60"></animateTransform>
  </path>
</g><g transform="translate(1643.7654478708328,-9.663821967678075) scale(100)" opacity="0.7">
  <path d="M8.257703999999999 0 C8.257703999999999 1.9088159999999996 8.17766262124325 2.5172648528498014 7.2232546212432505 4.170347999999998 S5.781935147150197 6.196973440932372 4.128852 7.151381440932372 S1.908816 8.340695999999998 5.107203329530565e-16 8.340695999999998 S-2.475768852849801 8.105789440932373 -4.1288519999999975 7.151381440932373 S-6.268846621243248 5.823431147150198 -7.223254621243249 4.1703480000000015 S-8.257703999999999 1.9088160000000007 -8.257703999999999 1.0112770771906293e-15 S-8.17766262124325 -2.517264852849799 -7.223254621243251 -4.170347999999996 S-5.781935147150199 -6.1969734409323705 -4.128852000000003 -7.151381440932371 S-1.9088160000000012 -8.340695999999998 -1.5321609988591693e-15 -8.340695999999998 S2.4757688528497965 -8.105789440932375 4.128851999999994 -7.151381440932377 S6.268846621243247 -5.823431147150199 7.223254621243248 -4.170348000000002 S8.257703999999999 -1.9088160000000016 8.257703999999999 -2.0225541543812587e-15" fill="#3e1672" stroke-width="0">
    <animateTransform attributeName="transform" type="rotate" dur="16.666666666666668s" repeatCount="indefinite" values="0;60"></animateTransform>
  </path>
</g><g transform="translate(1906.071627019166,-213.12935075474923) scale(100)" opacity="0.7">
  <path d="M11.560785599999997 0 C11.560785599999997 2.6723423999999993 11.44872766974055 3.5241707939897213 10.11255646974055 5.838487199999997 S8.094709206010275 8.675762817305323 5.7803927999999996 10.011934017305322 S2.6723424000000002 11.676974399999995 7.15008466134279e-16 11.676974399999995 S-3.4660763939897206 11.34810521730532 -5.780392799999996 10.011934017305322 S-8.776385269740546 8.152803606010277 -10.112556469740547 5.838487200000001 S-11.560785599999997 2.6723424000000007 -11.560785599999997 1.415787908066881e-15 S-11.448727669740551 -3.524170793989718 -10.112556469740552 -5.838487199999994 S-8.094709206010279 -8.67576281730532 -5.780392800000004 -10.01193401730532 S-2.6723424000000016 -11.676974399999995 -2.145025398402837e-15 -11.676974399999995 S3.4660763939897143 -11.348105217305323 5.780392799999991 -10.011934017305325 S8.776385269740546 -8.152803606010277 10.112556469740547 -5.838487200000003 S11.560785599999997 -2.672342400000002 11.560785599999997 -2.831575816133762e-15" fill="#45197e" stroke-width="0">
    <animateTransform attributeName="transform" type="rotate" dur="11.11111111111111s" repeatCount="indefinite" values="0;60"></animateTransform>
  </path>
</g></g>
</svg>