<svg xmlns="http://www.w3.org/2000/svg" xmlns:xlink="http://www.w3.org/1999/xlink" style="margin:auto;display:block;z-index:1;position:relative" preserveAspectRatio="xMidYMid" viewBox="0 0 1920 1080">
<g transform="translate(959,470.5) scale(1,1) translate(-959,-470.5)"><g transform="translate(1597.4442393889365,263.05689167609785) scale(100)" opacity="0.62">
  <path d="M6.444479999999999 0 C6.444479999999999 1.5439899999999998 6.818168677029134 2.153625436810864 6.0461736770291346 3.4907599999999994 S4.559374563189135 4.809088394180737 3.22224 5.581083394180737 S1.5439900000000002 6.98152 4.2749480605916147e-16 6.98152 S-1.8851054368108626 6.353078394180738 -3.222239999999998 5.581083394180738 S-5.274178677029132 4.827894563189137 -6.046173677029133 3.490760000000002 S-6.444479999999999 1.5439900000000006 -6.444479999999999 7.892211804169133e-16 S-6.818168677029135 -2.153625436810863 -6.046173677029135 -3.490759999999998 S-4.559374563189137 -4.809088394180737 -3.222240000000002 -5.581083394180737 S-1.543990000000001 -6.98152 -1.2824844181774843e-15 -6.98152 S1.885105436810859 -6.35307839418074 3.222239999999995 -5.581083394180741 S5.2741786770291315 -4.827894563189138 6.046173677029132 -3.490760000000003 S6.444479999999999 -1.5439900000000013 6.444479999999999 -1.5784423608338266e-15" fill="#a05ef5" stroke-width="0">
    <animateTransform attributeName="transform" type="rotate" dur="50s" repeatCount="indefinite" values="0;60"></animateTransform>
  </path>
</g><g transform="translate(1725.1330872667238,221.5682700113174) scale(100)" opacity="0.62">
  <path d="M7.733376 0 C7.733376 1.8527879999999999 8.181802412434962 2.5843505241730367 7.255408412434962 4.188911999999999 S5.471249475826963 5.770906073016886 3.866688000000001 6.697300073016886 S1.8527880000000003 8.377824 5.129937672709938e-16 8.377824 S-2.2621265241730355 7.623694073016886 -3.866687999999998 6.697300073016887 S-6.32901441243496 5.793473475826965 -7.25540841243496 4.188912000000003 S-7.733376 1.8527880000000008 -7.733376 9.470654165002962e-16 S-8.181802412434962 -2.584350524173035 -7.255408412434963 -4.1889119999999975 S-5.471249475826966 -5.770906073016884 -3.8666880000000035 -6.697300073016885 S-1.8527880000000014 -8.377824 -1.5389813018129812e-15 -8.377824 S2.2621265241730315 -7.623694073016888 3.8666879999999946 -6.69730007301689 S6.329014412434958 -5.793473475826966 7.255408412434959 -4.188912000000004 S7.733375999999999 -1.8527880000000019 7.733376 -1.8941308330005923e-15" fill="#8649d4" stroke-width="0">
    <animateTransform attributeName="transform" type="rotate" dur="25s" repeatCount="indefinite" values="0;60"></animateTransform>
  </path>
</g><g transform="translate(2031.5863221734132,121.99557801584439) scale(100)" opacity="0.62">
  <path d="M10.826726399999998 0 C10.826726399999998 2.5939031999999997 11.454523377408947 3.618090733842252 10.157571777408947 5.864476799999999 S7.659749266157747 8.07926850222364 5.4133632 9.37622010222364 S2.5939032000000006 11.7289536 7.181912741793913e-16 11.7289536 S-3.166977133842249 10.673171702223641 -5.4133631999999965 9.376220102223641 S-8.860620177408943 8.11086286615775 -10.157571777408943 5.864476800000004 S-10.826726399999998 2.593903200000001 -10.826726399999998 1.3258915831004145e-15 S-11.454523377408947 -3.6180907338422488 -10.157571777408947 -5.864476799999997 S-7.659749266157751 -8.079268502223638 -5.413363200000004 -9.37622010222364 S-2.593903200000002 -11.7289536 -2.1545738225381737e-15 -11.7289536 S3.1669771338422437 -10.673171702223643 5.413363199999992 -9.376220102223645 S8.860620177408942 -8.110862866157753 10.157571777408943 -5.864476800000006 S10.826726399999998 -2.5939032000000024 10.826726399999998 -2.651783166200829e-15" fill="#6c35b3" stroke-width="0">
    <animateTransform attributeName="transform" type="rotate" dur="16.666666666666668s" repeatCount="indefinite" values="0;60"></animateTransform>
  </path>
</g></g>
</svg>